<?xml version="1.0" encoding="UTF-8"?>
<svg version="1.1" xmlns="http://www.w3.org/2000/svg" width="1024" height="1024">
<path d="M0 0 C2 1 2 1 3.72265625 3.24609375 C6.30716116 6.37143845 9.17909829 8.69669121 12.4375 11.0625 C13.07421631 11.52712646 13.71093262 11.99175293 14.36694336 12.47045898 C20.06060258 16.5198374 26.00513308 20.0870309 32.0625 23.5625 C32.95445068 24.07498291 33.84640137 24.58746582 34.76538086 25.11547852 C39.10038957 27.55123126 43.19654852 29.61366845 48 31 C49.75049596 31.87524798 51.47193586 32.80812165 53.1875 33.75 C69.45892338 41.84157582 87.8568169 45.15615733 105.88787842 45.14044189 C106.96274388 45.14341302 108.03760933 45.14638414 109.14504647 45.1494453 C112.73570301 45.15809531 116.32632607 45.15963744 119.91699219 45.16113281 C122.4965268 45.16576376 125.07606073 45.17078879 127.65559387 45.17617798 C134.65830408 45.18972329 141.66100854 45.19578077 148.66372967 45.20018864 C153.0453141 45.20295888 157.42689635 45.20719776 161.80847931 45.21169281 C173.96429683 45.2238831 186.12011262 45.23418121 198.27593613 45.2375679 C199.0530409 45.23778747 199.83014567 45.23800703 200.63079907 45.23823325 C201.79909992 45.23856067 201.79909992 45.23856067 202.9910028 45.2388947 C204.56903442 45.23933815 206.14706604 45.23978471 207.72509766 45.24023438 C208.50784035 45.2404558 209.29058304 45.24067723 210.09704521 45.24090537 C222.75421061 45.24484563 235.41131817 45.26227708 248.06846127 45.2855939 C261.09559634 45.30939634 274.12270252 45.32177387 287.14985967 45.32293582 C294.45093898 45.32384788 301.75194301 45.32948037 309.0530014 45.34775543 C315.93131419 45.36491267 322.80948285 45.3663431 329.6878109 45.35761642 C332.19823527 45.35685129 334.70866759 45.36111869 337.21907234 45.37107468 C371.50251647 45.49895149 400.54911146 38.80310947 430 21 C431.45529074 23.91058147 430.30655325 25.85257545 429.36181641 28.81445312 C422.42773976 49.40065501 412.1220909 67.21336364 392.875 78.625 C390 80 390 80 388 80 C388.70125 81.0415625 389.4025 82.083125 390.125 83.15625 C405.89287599 106.85270058 418.38327894 133.88164711 419.31640625 162.80859375 C419.35830078 164.04931641 419.40019531 165.29003906 419.44335938 166.56835938 C419.48267578 167.84517578 419.52199219 169.12199219 419.5625 170.4375 C419.60568359 171.74138672 419.64886719 173.04527344 419.69335938 174.38867188 C419.79897524 177.59235316 419.90108101 180.79610611 420 184 C419.34 184 418.68 184 418 184 C417.98582031 184.53625 417.97164062 185.0725 417.95703125 185.625 C416.92453375 202.59144535 409.04190227 219.74912698 399.03125 233.30078125 C397.74058786 235.09616259 397.74058786 235.09616259 398 238 C400.21631063 240.13171579 400.21631063 240.13171579 403.0625 242.25 C422.29867674 257.56542734 435.72246848 278.89466361 446 301 C446.28794434 301.60005859 446.57588867 302.20011719 446.87255859 302.81835938 C462.43872337 335.31505396 470.11568798 371.62623607 476 407 C476.11172546 407.66906372 476.22345093 408.33812744 476.33856201 409.02746582 C479.28680934 426.7853521 481.49951576 444.58526517 483.25 462.5 C483.33308411 463.34642059 483.41616821 464.19284119 483.50177002 465.06491089 C485.26230423 483.21115599 486.15418136 501.34107064 486.61254883 519.56469727 C486.66322026 521.50688193 486.71868703 523.44894649 486.77856445 525.39086914 C486.86631145 528.23827086 486.94062614 531.0857335 487.01171875 533.93359375 C487.04077805 534.80221542 487.06983734 535.6708371 487.09977722 536.56578064 C487.12519341 537.76963158 487.12519341 537.76963158 487.15112305 538.99780273 C487.17031296 539.70073959 487.18950287 540.40367645 487.20927429 541.12791443 C487 543 487 543 485 546 C468.05010047 544.82802552 450.96087071 542.92198707 434.99710369 536.78030491 C418.33445433 530.39552483 403.59861823 528.70904943 385.84150326 528.95540941 C382.22846853 528.9951491 378.6155271 528.98106338 375.00233459 528.97428894 C368.77696091 528.96962334 362.55245159 528.99728714 356.3272953 529.04842949 C347.32749082 529.12231769 338.32809411 529.14508728 329.32801928 529.15632141 C314.71787438 529.17590421 300.10818781 529.23548198 285.49829102 529.32104492 C271.32611342 529.40395682 257.15406138 529.46751417 242.98168945 529.50561523 C242.1046323 529.50797975 241.22757514 529.51034426 240.32394049 529.51278042 C235.92296331 529.52452777 231.52198525 529.53590066 227.12100661 529.54708755 C190.74701454 529.64002933 154.37354331 529.79822903 118 530 C119.64709312 525.64977171 121.84209936 522.06419056 124.5625 518.3125 C125.23067749 517.38884644 125.23067749 517.38884644 125.91235352 516.4465332 C132.89435893 506.93124475 140.64223207 499.19525853 150 492 C150.81726563 491.34386719 151.63453125 490.68773437 152.4765625 490.01171875 C173.20516032 474 173.20516032 474 182 474 C182 473.34 182 472.68 182 472 C180.6857605 471.60035034 180.6857605 471.60035034 179.3449707 471.19262695 C176.10768301 470.03839366 173.42995884 468.66889639 170.48046875 466.91796875 C169.45759766 466.31533203 168.43472656 465.71269531 167.38085938 465.09179688 C166.32705078 464.46337891 165.27324219 463.83496094 164.1875 463.1875 C162.09816855 461.9509569 160.00833241 460.71526611 157.91796875 459.48046875 C156.91604492 458.88709717 155.91412109 458.29372559 154.88183594 457.68237305 C151.58624924 455.75845845 148.25383263 453.91301969 144.89428711 452.10351562 C142.23971051 450.55709389 139.87838032 448.70231281 137.453125 446.82421875 C134.08142904 444.31692255 130.61215092 441.96804548 127.125 439.625 C126.45774902 439.17165283 125.79049805 438.71830566 125.10302734 438.2512207 C121.83680391 435.82988955 121.83680391 435.82988955 118 435 C116.82466479 433.84386264 115.65457091 432.68189079 114.51220703 431.49316406 C111.69514158 428.71157344 108.53511483 426.33369476 105.4375 423.875 C99.27998076 418.93404191 93.38251892 413.81639114 87.61328125 408.4296875 C85.34274394 406.31866477 83.03720564 404.27173526 80.6875 402.25 C71.45742433 394.2213598 63.65944092 385.06484506 56.3125 375.3125 C55.20492485 373.84988334 54.09686411 372.38763427 52.98828125 370.92578125 C52.47217285 370.24281982 51.95606445 369.5598584 51.42431641 368.85620117 C50.24526172 367.31963059 49.02428702 365.81532902 47.79296875 364.3203125 C45.87757722 361.84157052 44.44853492 359.33754651 43 356.5625 C41.32852208 353.41469132 39.6585982 350.3653045 37.625 347.4375 C36 345 36 345 36 343 C35.34 342.67 34.68 342.34 34 342 C32.96606445 340.06079102 32.96606445 340.06079102 31.86328125 337.50390625 C31.45432617 336.56216553 31.04537109 335.6204248 30.62402344 334.65014648 C30.1912207 333.63122314 29.75841797 332.6122998 29.3125 331.5625 C28.64202637 329.99447632 28.64202637 329.99447632 27.95800781 328.39477539 C26.62832071 325.26743342 25.31203305 322.13478351 24 319 C23.65179199 318.1759668 23.30358398 317.35193359 22.94482422 316.50292969 C12.13887684 290.75329698 6.28537955 262.78036219 4 235 C3.88914062 233.78828125 3.77828125 232.5765625 3.6640625 231.328125 C-0.20135266 181.80902271 5.41646529 128.62599654 33.45703125 86.33203125 C35.04688711 83.92913518 36.5333623 81.4796307 38 79 C37.2265625 78.443125 36.453125 77.88625 35.65625 77.3125 C15.31191608 62.4067504 4.95657529 44.53696315 0.6015625 19.73046875 C-0.11437153 14.82535317 -0.10296674 9.9424036 0 5 C-0.66 5 -1.32 5 -2 5 C-1.34 3.35 -0.68 1.7 0 0 Z " fill="#24AFFE" transform="translate(258,241)"/>
<path d="M0 0 C2.77344073 2.26568182 5.23754218 4.63263178 7.69140625 7.23828125 C8.29726563 7.78742188 8.903125 8.3365625 9.52734375 8.90234375 C24.86444244 22.94334959 36.01889968 42.58509837 44.69140625 61.23828125 C44.97935059 61.83833984 45.26729492 62.43839844 45.56396484 63.05664062 C61.13012962 95.55333521 68.80709423 131.86451732 74.69140625 167.23828125 C74.85899445 168.24187683 74.85899445 168.24187683 75.02996826 169.26574707 C77.97821559 187.02363335 80.19092201 204.82354642 81.94140625 222.73828125 C82.02449036 223.58470184 82.10757446 224.43112244 82.19317627 225.30319214 C83.95371048 243.44943724 84.84558761 261.57935189 85.30395508 279.80297852 C85.35462651 281.74516318 85.41009328 283.68722774 85.4699707 285.62915039 C85.5577177 288.47655211 85.63203239 291.32401475 85.703125 294.171875 C85.74671394 295.47480751 85.74671394 295.47480751 85.79118347 296.80406189 C85.81659966 298.00791283 85.81659966 298.00791283 85.8425293 299.23608398 C85.86171921 299.93902084 85.88090912 300.6419577 85.90068054 301.36619568 C85.69140625 303.23828125 85.69140625 303.23828125 83.69140625 306.23828125 C66.74150672 305.06630677 49.65227696 303.16026832 33.68850994 297.01858616 C17.02586058 290.63380608 2.29002448 288.94733068 -15.46709049 289.19369066 C-19.08012522 289.23343035 -22.69306665 289.21934463 -26.30625916 289.21257019 C-32.53163284 289.20790459 -38.75614216 289.23556839 -44.98129845 289.28671074 C-53.98110293 289.36059894 -62.98049964 289.38336853 -71.98057447 289.39460266 C-86.59071937 289.41418546 -101.20040594 289.47376323 -115.81030273 289.55932617 C-129.98248033 289.64223807 -144.15453237 289.70579542 -158.3269043 289.74389648 C-159.20396145 289.746261 -160.08101861 289.74862551 -160.98465326 289.75106167 C-165.38563044 289.76280902 -169.7866085 289.77418191 -174.18758714 289.7853688 C-210.56157921 289.87831058 -246.93505044 290.03651028 -283.30859375 290.23828125 C-281.66150063 285.88805296 -279.46649439 282.30247181 -276.74609375 278.55078125 C-276.07791626 277.62712769 -276.07791626 277.62712769 -275.39624023 276.68481445 C-268.41423482 267.169526 -260.66636168 259.43353978 -251.30859375 252.23828125 C-250.49132812 251.58214844 -249.6740625 250.92601562 -248.83203125 250.25 C-228.10343343 234.23828125 -228.10343343 234.23828125 -219.30859375 234.23828125 C-219.30859375 233.57828125 -219.30859375 232.91828125 -219.30859375 232.23828125 C-220.18475342 231.97184814 -221.06091309 231.70541504 -221.96362305 231.4309082 C-225.20091074 230.27667491 -227.87863491 228.90717764 -230.828125 227.15625 C-232.36243164 226.25229492 -232.36243164 226.25229492 -233.92773438 225.33007812 C-235.50844727 224.38745117 -235.50844727 224.38745117 -237.12109375 223.42578125 C-239.2104252 222.18923815 -241.30026134 220.95354736 -243.390625 219.71875 C-244.89375244 218.82857178 -244.89375244 218.82857178 -246.42724609 217.92041016 C-249.71872679 215.99884585 -253.04683359 214.15537502 -256.40209961 212.34790039 C-259.10361882 210.77556017 -261.52222414 208.90800137 -263.98046875 206.984375 C-265.85815578 205.57610973 -267.74629069 204.25912978 -269.69921875 202.9609375 C-270.29379883 202.56293945 -270.88837891 202.16494141 -271.50097656 201.75488281 C-272.69286093 200.96093715 -273.8900638 200.17491035 -275.09277344 199.39746094 C-276.55137612 198.41960267 -277.93754923 197.33553487 -279.30859375 196.23828125 C-279.30859375 193.23828125 -279.30859375 193.23828125 -277.23828125 190.9765625 C-276.26491586 190.06039346 -275.28804113 189.14794533 -274.30859375 188.23828125 C-273.20337721 187.15214325 -272.1019986 186.06209008 -271.00390625 184.96875 C-270.12798828 184.09959961 -270.12798828 184.09959961 -269.234375 183.21289062 C-268.34298828 182.32827148 -268.34298828 182.32827148 -267.43359375 181.42578125 C-266.84707031 180.84763672 -266.26054687 180.26949219 -265.65625 179.67382812 C-262.65897516 176.69302183 -259.77792163 173.66571545 -257.02734375 170.45483398 C-253.58599277 166.50279114 -249.96799581 162.78397469 -246.23828125 159.10546875 C-245.5941629 158.46513702 -244.95004456 157.8248053 -244.28640747 157.16506958 C-242.25458471 155.14532175 -240.219525 153.12888706 -238.18359375 151.11328125 C-235.49053417 148.44696759 -232.80091243 145.7772529 -230.11328125 143.10546875 C-229.50483368 142.50531952 -228.89638611 141.90517029 -228.26950073 141.28683472 C-225.62038865 138.65287124 -223.06424 136.01252698 -220.69580078 133.12158203 C-218.36688724 130.30868892 -215.92226752 127.78620379 -213.30859375 125.23828125 C-212.32919342 124.26627239 -211.3508973 123.29315004 -210.37353516 122.3190918 C-209.59715195 121.54755013 -209.59715195 121.54755013 -208.80508423 120.76042175 C-206.46159223 118.43047306 -204.12089702 116.0977224 -201.78027344 113.76489258 C-200.55363655 112.54328289 -199.32610343 111.32257244 -198.09765625 110.1027832 C-189.14032668 101.22088971 -189.14032668 101.22088971 -180.69628906 91.85522461 C-175.43432004 85.72397535 -169.42745399 80.2466629 -163.29296875 75.0078125 C-161.09371562 73.04666748 -159.05204244 70.97390943 -156.99609375 68.86328125 C-152.08229266 63.89925392 -146.76332744 59.58949647 -141.30859375 55.23828125 C-140.19631053 54.31443032 -139.08570015 53.38856253 -137.9765625 52.4609375 C-111.9414131 30.86616959 -36.44708724 -19.40689061 0 0 Z " fill="#0790F2" transform="translate(659.30859375,480.76171875)"/>
<path d="M0 0 C2.79236741 2.25847598 5.25425619 4.62158615 7.71484375 7.234375 C8.62363281 8.05808594 8.62363281 8.05808594 9.55078125 8.8984375 C24.88787994 22.93944334 36.04233718 42.58119212 44.71484375 61.234375 C45.00278809 61.83443359 45.29073242 62.43449219 45.58740234 63.05273438 C61.15356712 95.54942896 68.83053173 131.86061107 74.71484375 167.234375 C74.82656921 167.90343872 74.93829468 168.57250244 75.05340576 169.26184082 C78.01872816 187.12257372 80.24124315 205.03104112 82.02734375 223.046875 C82.11469788 223.91464569 82.202052 224.78241638 82.29205322 225.67648315 C83.27607548 235.56434252 83.98687119 245.28802204 83.71484375 255.234375 C33.24741437 243.75076832 -17.06348608 213.21914799 -58.28515625 183.234375 C-58.86362305 182.81639648 -59.44208984 182.39841797 -60.03808594 181.96777344 C-72.6964391 172.79222442 -84.77829026 162.81039296 -96.28515625 152.234375 C-97.04441406 151.56664062 -97.80367187 150.89890625 -98.5859375 150.2109375 C-109.17497113 140.8870421 -119.46672361 131.03299181 -128.16015625 119.89453125 C-129.93157006 117.67700771 -131.7547596 115.56389177 -133.640625 113.4453125 C-142.17539992 103.74112568 -149.51157781 92.88600468 -156.22265625 81.859375 C-156.88744995 80.79891968 -156.88744995 80.79891968 -157.56567383 79.71704102 C-160.40686823 74.9044056 -160.40686823 74.9044056 -159.8984375 72.10546875 C-157.60203442 69.442086 -155.14079465 67.0256261 -152.53515625 64.671875 C-151.67168579 63.88514404 -151.67168579 63.88514404 -150.79077148 63.08251953 C-144.54683868 57.46390829 -138.00219968 52.27262651 -131.28515625 47.234375 C-130.72747559 46.81446289 -130.16979492 46.39455078 -129.59521484 45.96191406 C-119.9060728 38.71838272 -109.73826842 32.31452583 -99.28515625 26.234375 C-98.60646484 25.83863281 -97.92777344 25.44289063 -97.22851562 25.03515625 C-75.49301123 12.53564146 -25.12290338 -13.50244034 0 0 Z " fill="#0790F3" transform="translate(659.28515625,480.765625)"/>
<path d="M0 0 C3.63901143 3.08558772 7.04859643 6.3694274 10.42382812 9.73974609 C11.09285156 10.39716797 11.761875 11.05458984 12.45117188 11.73193359 C29.21598924 29.44713743 34.17530073 53.61644375 33.80273438 77.09130859 C33.49148347 85.04549849 31.89179002 91.52016315 28.42382812 98.73974609 C27.73740234 100.21894531 27.73740234 100.21894531 27.03710938 101.72802734 C18.01124786 119.60665165 2.8729066 131.38628844 -15.83398438 137.86865234 C-38.69504906 144.31584634 -62.1505381 141.97841863 -82.96289062 130.82958984 C-87.55430938 128.25310168 -91.60234921 125.18099458 -95.57617188 121.73974609 C-96.37023437 121.14033203 -97.16429687 120.54091797 -97.98242188 119.92333984 C-110.66352476 109.24753184 -120.47634971 91.37976836 -122.39306641 74.90625 C-124.37617819 51.44207135 -121.21966296 29.02664424 -105.92773438 10.25927734 C-103.89192323 7.97046077 -101.82110741 5.82805822 -99.57617188 3.73974609 C-98.99867188 3.14548828 -98.42117188 2.55123047 -97.82617188 1.93896484 C-88.60364207 -7.0564951 -76.1566527 -12.78260403 -63.57617188 -15.26025391 C-62.46242188 -15.48712891 -61.34867187 -15.71400391 -60.20117188 -15.94775391 C-39.13556165 -17.76375479 -16.87094519 -13.48943914 0 0 Z " fill="#FDFEFE" transform="translate(426.576171875,347.26025390625)"/>
<path d="M0 0 C1.56645542 1.34669169 3.1096192 2.72108329 4.625 4.125 C5.30949219 4.75535156 5.99398437 5.38570313 6.69921875 6.03515625 C20.9656033 20.5818234 26.90711086 41.5008555 26.94189453 61.38745117 C26.60872653 83.09889942 18.36619484 102.01060723 3.5 117.75 C-13.28614085 134.02465179 -34.67768067 141.84079389 -57.8684082 141.59301758 C-76.70411921 140.99869825 -94.55579579 134.14554617 -108.375 121.125 C-109.14199219 120.41085937 -109.90898438 119.69671875 -110.69921875 118.9609375 C-123.82470043 105.63489668 -129.67131484 87.25690007 -129.9375 68.875 C-129.76630436 47.08678824 -122.19838425 27.15738367 -107.375 11.125 C-106.75109375 10.42117188 -106.1271875 9.71734375 -105.484375 8.9921875 C-78.60800415 -19.80392413 -31.25864507 -23.92048754 0 0 Z " fill="#FCFEFE" transform="translate(623.375,346.875)"/>
<path d="M0 0 C3.42272028 3.09173194 5.39672744 6.25693886 7.5625 10.3125 C12.01908267 18.39862644 17.37711313 25.69365229 23 33 C23.71414063 33.92941406 24.42828125 34.85882812 25.1640625 35.81640625 C29.19779266 40.95097512 33.46807005 45.83211307 37.87109375 50.65234375 C39.66682277 52.63258804 41.40067606 54.6456535 43.125 56.6875 C51.32395381 66.09613552 60.41992874 75.00748341 70 83 C70.91394531 83.79148437 71.82789063 84.58296875 72.76953125 85.3984375 C100.5086149 109.35830665 131.28641742 129.60854175 163.64453125 146.7421875 C165.67340798 147.82560095 167.68405163 148.93303917 169.6875 150.0625 C193.38501659 163.22778699 219.28001153 173.53329011 245 182 C246.23311618 186.89323785 246.25936531 191.77309456 246.38671875 196.7890625 C246.42500542 198.19942276 246.42500542 198.19942276 246.46406555 199.63827515 C246.51593994 201.62011736 246.5653823 203.60202453 246.61254883 205.58398438 C246.68741333 208.62148339 246.7780095 211.65826353 246.86914062 214.6953125 C246.91763389 216.62237174 246.96519209 218.54945478 247.01171875 220.4765625 C247.05530769 221.84066757 247.05530769 221.84066757 247.09977722 223.23233032 C247.11672134 224.0768576 247.13366547 224.92138489 247.15112305 225.79150391 C247.17031296 226.53365143 247.18950287 227.27579895 247.20927429 228.04043579 C247 230 247 230 245 233 C220.81065733 231.32746547 196.35451964 226.77550744 174 217 C173.67 216.34 173.34 215.68 173 215 C171.3611498 214.04357459 171.3611498 214.04357459 169.34375 213.1875 C168.19374512 212.66555054 168.19374512 212.66555054 167.02050781 212.13305664 C165.77285645 211.5721936 165.77285645 211.5721936 164.5 211 C123.43009743 192.01697398 82.24282995 160.73325612 52.91796875 126.25390625 C51.42034737 124.49397236 49.89672258 122.75615686 48.36328125 121.02734375 C18.31240464 86.98572677 -1.51990614 48.98592599 -1.14526367 3.11035156 C-1 1 -1 1 0 0 Z " fill="#025FA9" transform="translate(498,554)"/>
<path d="M0 0 C1.15371094 0.61359375 2.30742187 1.2271875 3.49609375 1.859375 C24.64656053 12.78469737 46.80976597 21.87358394 68.93359375 30.609375 C69.63154053 30.88499268 70.3294873 31.16061035 71.04858398 31.44458008 C89.58353402 38.75600807 108.1527731 45.94921613 126.93359375 52.609375 C126.60359375 53.269375 126.27359375 53.929375 125.93359375 54.609375 C60.26359375 54.609375 -5.40640625 54.609375 -73.06640625 54.609375 C-71.29320482 50.17637143 -69.26677396 46.73213168 -66.50390625 42.921875 C-66.05845459 42.30610596 -65.61300293 41.69033691 -65.15405273 41.0559082 C-58.17095784 31.53913498 -50.4216684 23.8097734 -41.06640625 16.609375 C-40.27234375 15.96484375 -39.47828125 15.3203125 -38.66015625 14.65625 C-32.57407491 9.91835124 -26.03005415 6.20648328 -19.25390625 2.546875 C-17.89193115 1.79398193 -17.89193115 1.79398193 -16.50244141 1.02587891 C-10.04681449 -2.36711178 -6.80883972 -3.0878305 0 0 Z " fill="#025FAA" transform="translate(449.06640625,716.390625)"/>
<path d="M0 0 C8.53862291 5.68852169 14.42615276 13.3350868 17.04296875 23.33984375 C18.35341027 35.36420861 17.21850861 45.48536756 10.29296875 55.58984375 C4.32436514 63.00946127 -3.70810026 67.74437201 -12.89453125 70.08984375 C-25.38485198 71.10946177 -35.80548547 69.17103621 -45.95703125 61.33984375 C-53.77383868 53.40346756 -58.0343039 43.85779018 -58.26953125 32.77734375 C-58.1628827 21.36594846 -54.25392412 12.72563393 -46.296875 4.65625 C-32.93523783 -7.54879898 -15.60057342 -8.75857821 0 0 Z " fill="#025CA9" transform="translate(587.95703125,377.66015625)"/>
<path d="M0 0 C8.43815908 6.28252853 13.75195021 15.3573312 15.32421875 25.73046875 C16.40518194 35.24622048 14.15074059 45.24348714 8.57421875 53.10546875 C1.71148168 61.23781217 -5.31867213 65.89119147 -15.67578125 68.48046875 C-16.66578125 68.56296875 -17.65578125 68.64546875 -18.67578125 68.73046875 C-19.40152344 68.79363281 -20.12726563 68.85679687 -20.875 68.921875 C-31.3845242 69.43332751 -40.6037334 65.28900763 -48.67578125 58.73046875 C-55.3524661 52.53068996 -59.23506875 44.32122163 -59.94921875 35.26171875 C-60.37625871 23.38439274 -58.27426411 14.58632059 -50.36328125 5.29296875 C-36.01569186 -9.48078666 -17.23773605 -10.9596281 0 0 Z " fill="#025CA9" transform="translate(409.67578125,379.26953125)"/>
<path d="M0 0 C5.76064543 4.22447332 7.95136288 9.17814327 9.9921875 15.7734375 C11.85519845 21.49790635 13.7957617 26.54337126 17.3046875 31.50390625 C18.4036093 34.63208705 17.27920054 36.4724496 15.9921875 39.4609375 C14.66677493 41.91102588 13.32059901 44.27835788 11.8671875 46.6484375 C11.46757812 47.30481201 11.06796875 47.96118652 10.65625 48.63745117 C4.64498586 58.39267709 -2.17220655 67.09933023 -10.0078125 75.4609375 C-20.87917186 67.18925103 -28.27599803 55.16036679 -35.0078125 43.4609375 C-35.47574219 42.65140625 -35.94367188 41.841875 -36.42578125 41.0078125 C-39.104412 36.07108689 -39.104412 36.07108689 -38.69287109 33.47167969 C-37.55369873 30.12805047 -36.0804949 26.92933886 -34.6328125 23.7109375 C-34.01866478 22.34211673 -33.406681 20.972323 -32.796875 19.6015625 C-32.49313965 18.92109863 -32.1894043 18.24063477 -31.87646484 17.53955078 C-31.00655975 15.45793976 -30.2979223 13.35869032 -29.5859375 11.21875 C-28.19987418 7.45987169 -26.38337682 5.5065705 -23.1328125 3.0859375 C-22.28976562 2.43882812 -21.44671875 1.79171875 -20.578125 1.125 C-13.496642 -3.45966832 -7.50496217 -3.64348786 0 0 Z " fill="#015DAA" transform="translate(488.0078125,422.5390625)"/>
<path d="M0 0 C-0.33 0.66 -0.66 1.32 -1 2 C-7.43309386 3.35860882 -14.28302979 3.14405951 -20.83279419 3.12698364 C-21.77022803 3.12854363 -22.70766187 3.13010362 -23.6735028 3.13171089 C-26.7877227 3.13567165 -29.90189309 3.1325502 -33.01611328 3.12939453 C-35.26120533 3.13075096 -37.50629715 3.13253225 -39.75138855 3.13470459 C-45.8374672 3.13925594 -51.92352885 3.13749726 -58.00960779 3.1343255 C-64.41280823 3.13178317 -70.81600727 3.13414528 -77.21920776 3.13571167 C-88.68411034 3.13764723 -100.14900359 3.13454348 -111.61390458 3.12945233 C-121.93824491 3.12500856 -132.26257395 3.12574119 -142.58691406 3.13037109 C-154.62834265 3.13576865 -166.66976273 3.1376887 -178.71119297 3.13475883 C-185.06467831 3.13321604 -191.41815596 3.1329458 -197.77164078 3.13629532 C-223.86417944 3.14822927 -249.92759166 3.12172608 -276 2 C-276 1.34 -276 0.68 -276 0 C-242.13899814 -0.15048901 -208.27797789 -0.29551996 -174.4169218 -0.4332476 C-170.41784028 -0.44951827 -166.41875895 -0.46583406 -162.41967773 -0.48217773 C-161.62354438 -0.48543066 -160.82741103 -0.48868358 -160.00715243 -0.49203508 C-147.12219868 -0.54478932 -134.23726339 -0.60119678 -121.35233123 -0.6589582 C-108.12776731 -0.71816069 -94.90319116 -0.77342827 -81.67859548 -0.82505554 C-73.52063373 -0.85702691 -65.36269692 -0.89205456 -57.20476549 -0.93101191 C-50.9455755 -0.96057295 -44.68637524 -0.98465496 -38.42715454 -1.00670624 C-35.86212347 -1.0165974 -33.29709852 -1.02825934 -30.73208427 -1.04183006 C-27.22760312 -1.06010543 -23.72315555 -1.07198415 -20.21864319 -1.08229065 C-19.20597557 -1.08909444 -18.19330794 -1.09589823 -17.14995342 -1.10290819 C-11.34891592 -1.11204036 -5.75383437 -0.74952569 0 0 Z " fill="#1BA5F7" transform="translate(625,287)"/>
<path d="M0 0 C0.66 0.33 1.32 0.66 2 1 C1.50628906 1.68707031 1.01257813 2.37414062 0.50390625 3.08203125 C-0.13675781 3.98308594 -0.77742188 4.88414062 -1.4375 5.8125 C-2.07558594 6.70582031 -2.71367187 7.59914063 -3.37109375 8.51953125 C-5.13290268 10.97134334 -5.13290268 10.97134334 -6 14 C50.76 14 107.52 14 166 14 C166 14.33 166 14.66 166 15 C154.39927372 16.4862562 143.05152416 17.28767242 131.36083984 17.22705078 C129.79170234 17.22648443 128.22256432 17.22680758 126.65342712 17.22793579 C122.45829749 17.22850157 118.26328598 17.21687523 114.06818342 17.20278788 C109.66001478 17.19014898 105.25184241 17.18909978 100.84365845 17.18673706 C92.52502152 17.18056048 84.20643816 17.1642023 75.88782465 17.14403808 C66.40512847 17.12155896 56.92242951 17.11065567 47.43971324 17.10064721 C27.95977864 17.07983196 8.47989365 17.04473165 -11 17 C-9.44904381 12.91170185 -7.55623299 9.76699168 -4.9375 6.25 C-4.22464844 5.28578125 -3.51179688 4.3215625 -2.77734375 3.328125 C-1 1 -1 1 0 0 Z " fill="#085599" transform="translate(387,754)"/>
<path d="M0 0 C0.66 0.66 1.32 1.32 2 2 C-4.97366764 25.06065094 -14.8773264 44.46879458 -36 57.6875 C-39 59 -39 59 -41.4375 58.75 C-41.953125 58.5025 -42.46875 58.255 -43 58 C-42.030625 57.54625 -41.06125 57.0925 -40.0625 56.625 C-36.92920418 55.34213779 -36.92920418 55.34213779 -36 53 C-32.91850921 51.13947726 -29.90833535 49.40636055 -26.625 47.9375 C-24.64235617 47.03325133 -24.64235617 47.03325133 -24 44 C-23.34 44 -22.68 44 -22 44 C-22 43.34 -22 42.68 -22 42 C-21.34 42 -20.68 42 -20 42 C-19.67 41.01 -19.34 40.02 -19 39 C-18.34 39 -17.68 39 -17 39 C-16.73960937 38.29101562 -16.47921875 37.58203125 -16.2109375 36.8515625 C-14.92370601 33.82033995 -13.35405328 31.17621733 -11.625 28.375 C-8.66872211 23.41509094 -6.56229259 18.57937792 -4.82421875 13.08203125 C-4 11 -4 11 -2 10 C-2.66 9.01 -3.32 8.02 -4 7 C-4.598125 7.350625 -5.19625 7.70125 -5.8125 8.0625 C-8 9 -8 9 -11 8 C-7.45960866 5.0843836 -3.8373228 2.49872182 0 0 Z " fill="#19A3F8" transform="translate(687,262)"/>
<path d="M0 0 C2 1 2 1 4 4 C4.08984375 6.79296875 4.08984375 6.79296875 3.9375 10.1875 C3.78936253 22.16194535 6.20529259 33.07188566 10.81640625 44.1328125 C12.02128173 47.05155377 13.03257506 49.99518704 14 53 C13.34 53 12.68 53 12 53 C3.81491615 37.85759487 -0.59691643 22.31057656 0 5 C-0.66 5 -1.32 5 -2 5 C-1.34 3.35 -0.68 1.7 0 0 Z " fill="#20A5F5" transform="translate(258,241)"/>
<path d="M0 0 C0.495 0.99 0.495 0.99 1 2 C0.4237085 2.28496338 -0.15258301 2.56992676 -0.74633789 2.86352539 C-13.6462151 9.29247928 -25.9029756 16.22361161 -37.81079102 24.36157227 C-38.72530029 24.98088623 -39.63980957 25.6002002 -40.58203125 26.23828125 C-41.38874268 26.79555908 -42.1954541 27.35283691 -43.02661133 27.92700195 C-43.67782959 28.28109131 -44.32904785 28.63518066 -45 29 C-45.66 28.67 -46.32 28.34 -47 28 C-43.71100531 25.78766766 -40.41831276 23.58089817 -37.125 21.375 C-35.74828125 20.44880859 -35.74828125 20.44880859 -34.34375 19.50390625 C-25.61770688 13.6660605 -16.81610321 8.22910536 -7.375 3.625 C-6.65699219 3.27050781 -5.93898438 2.91601562 -5.19921875 2.55078125 C-3.4680153 1.69672088 -1.73428829 0.84777864 0 0 Z " fill="#35BEFE" transform="translate(578,496)"/>
<path d="M0 0 C0.99 0 1.98 0 3 0 C4.75978652 2.38676726 6.29673797 4.71373904 7.8125 7.25 C8.25319824 7.97421143 8.69389648 8.69842285 9.14794922 9.44458008 C19.44101688 26.55883238 19.44101688 26.55883238 19 33 C17.1091354 30.16370309 15.6737333 27.37516018 14.1875 24.3125 C11.72232441 19.33404783 9.03854222 14.6440131 6 10 C3 5.24137931 3 5.24137931 3 3 C2.01 2.67 1.02 2.34 0 2 C0 1.34 0 0.68 0 0 Z " fill="#19A4FA" transform="translate(645,324)"/>
<path d="M0 0 C0.99 0.495 0.99 0.495 2 1 C2.88607744 5.59266199 3.16583222 10.14079867 3.31640625 14.80859375 C3.35830078 16.04931641 3.40019531 17.29003906 3.44335938 18.56835938 C3.48267578 19.84517578 3.52199219 21.12199219 3.5625 22.4375 C3.60568359 23.74138672 3.64886719 25.04527344 3.69335938 26.38867188 C3.79897524 29.59235316 3.90108101 32.79610611 4 36 C3.34 36 2.68 36 2 36 C1.65800047 32.25073924 1.32805829 28.50050426 1 24.75 C0.90460937 23.70585937 0.80921875 22.66171875 0.7109375 21.5859375 C0.08747873 14.37162885 -0.11692847 7.23982132 0 0 Z " fill="#1CA8FB" transform="translate(674,389)"/>
<path d="M0 0 C3.32366742 3.05099404 5.54224226 6.23449516 7.8125 10.125 C8.43769531 11.17945313 9.06289063 12.23390625 9.70703125 13.3203125 C10.13371094 14.20460938 10.56039063 15.08890625 11 16 C10.67 16.66 10.34 17.32 10 18 C8.66101601 16.04532248 7.32870953 14.0866421 6 12.125 C5.2575 11.03445313 4.515 9.94390625 3.75 8.8203125 C2 6 2 6 2 4 C1.34 4 0.68 4 0 4 C0.33 12.58 0.66 21.16 1 30 C0.67 30 0.34 30 0 30 C-0.83221007 26.37199381 -1.12850073 23.01608036 -1.1328125 19.296875 C-1.13410156 18.2346875 -1.13539063 17.1725 -1.13671875 16.078125 C-1.13285156 14.97984375 -1.12898438 13.8815625 -1.125 12.75 C-1.13080078 11.079375 -1.13080078 11.079375 -1.13671875 9.375 C-1.13542969 8.31796875 -1.13414062 7.2609375 -1.1328125 6.171875 C-1.13168457 5.2034668 -1.13055664 4.23505859 -1.12939453 3.23730469 C-1 1 -1 1 0 0 Z " fill="#014F96" transform="translate(498,554)"/>
<path d="M0 0 C4.54196192 0.86577705 7.11789131 3.51956925 10.375 6.625 C10.95209717 7.16753418 11.52919434 7.71006836 12.1237793 8.26904297 C16.02757729 11.97657297 19.73393159 15.70745295 23 20 C23 20.66 23 21.32 23 22 C19.74957109 20.60493574 17.92628208 19.03216606 15.6875 16.3125 C13.30184693 13.50193447 10.88923926 10.76256358 8.3125 8.125 C7.50232422 7.29355469 7.50232422 7.29355469 6.67578125 6.4453125 C5.03474428 4.89893967 5.03474428 4.89893967 2.85546875 3.9921875 C1 3 1 3 0 0 Z " fill="#108CE9" transform="translate(656,481)"/>
<path d="M0 0 C5.24122097 0.4137806 9.1630139 2.43022547 13.73046875 4.84375 C16.06688201 6.10500838 16.06688201 6.10500838 19 7 C20.57550709 7.82993033 22.13726078 8.68627783 23.6875 9.5625 C24.49574219 10.01753906 25.30398438 10.47257812 26.13671875 10.94140625 C26.75160156 11.29074219 27.36648438 11.64007813 28 12 C25.75479863 12.76059646 24.44781929 13.14310528 22.15649414 12.41088867 C21.23018188 11.91939331 21.23018188 11.91939331 20.28515625 11.41796875 C19.59873047 11.06283203 18.91230469 10.70769531 18.20507812 10.34179688 C17.49802734 9.96087891 16.79097656 9.57996094 16.0625 9.1875 C14.6584609 8.45008992 13.25353243 7.71437037 11.84765625 6.98046875 C11.18548096 6.63209961 10.52330566 6.28373047 9.84106445 5.92480469 C7.61432027 4.80626511 5.31377148 3.92122383 3 3 C1.1875 1.375 1.1875 1.375 0 0 Z " fill="#1BA5F9" transform="translate(289,266)"/>
<path d="M0 0 C3.55780196 0.60990891 6.6828589 1.5783681 10 3 C10 3.33 10 3.66 10 4 C0.76 4 -8.48 4 -18 4 C-14.39821412 1.59880941 -11.49133631 1.56228678 -7.3125 1.375 C-6.61060547 1.33632813 -5.90871094 1.29765625 -5.18554688 1.2578125 C-3.45745345 1.1637666 -1.72876325 1.0808032 0 1 C0 0.67 0 0.34 0 0 Z " fill="#1798FC" transform="translate(581,328)"/>
<path d="M0 0 C-2.70331017 2.70331017 -5.71542796 3.19915686 -9.3125 4.125 C-9.97701172 4.30675781 -10.64152344 4.48851562 -11.32617188 4.67578125 C-14.9606914 5.63204455 -18.24115057 6.21811505 -22 6 C-22 5.34 -22 4.68 -22 4 C-19.08644159 3.13372595 -16.16995672 2.28168994 -13.25 1.4375 C-12.425 1.19064453 -11.6 0.94378906 -10.75 0.68945312 C-9.95078125 0.46064453 -9.1515625 0.23183594 -8.328125 -0.00390625 C-7.5949707 -0.21861572 -6.86181641 -0.4333252 -6.10644531 -0.65454102 C-3.76130184 -1.03914672 -2.24174192 -0.72878764 0 0 Z " fill="#1AA4FA" transform="translate(660,279)"/>
<path d="M0 0 C0.66 0.33 1.32 0.66 2 1 C1.50628906 1.68707031 1.01257813 2.37414062 0.50390625 3.08203125 C-0.13675781 3.98308594 -0.77742188 4.88414062 -1.4375 5.8125 C-2.07558594 6.70582031 -2.71367187 7.59914063 -3.37109375 8.51953125 C-5.13290268 10.97134334 -5.13290268 10.97134334 -6 14 C-4.68 14.66 -3.36 15.32 -2 16 C-5.07322544 16.91058531 -7.80097361 17.08886184 -11 17 C-9.56407335 12.88016856 -7.53749031 9.74182002 -4.9375 6.25 C-4.22464844 5.28578125 -3.51179688 4.3215625 -2.77734375 3.328125 C-1 1 -1 1 0 0 Z " fill="#0B5A9A" transform="translate(387,754)"/>
<path d="M0 0 C0.57524414 0.15847412 1.15048828 0.31694824 1.74316406 0.48022461 C3.90939777 0.97913326 5.89322683 1.19888324 8.109375 1.31640625 C9.24052734 1.37924805 9.24052734 1.37924805 10.39453125 1.44335938 C11.56048828 1.50233398 11.56048828 1.50233398 12.75 1.5625 C13.93916016 1.62727539 13.93916016 1.62727539 15.15234375 1.69335938 C17.10137815 1.79902991 19.05066748 1.89997966 21 2 C21 2.33 21 2.66 21 3 C19.91203125 3.06058594 18.8240625 3.12117188 17.703125 3.18359375 C9.12332911 3.66987024 0.55962728 4.22485071 -8 5 C-5 3 -5 3 -1 3 C-0.67 2.01 -0.34 1.02 0 0 Z " fill="#098BFB" transform="translate(366,328)"/>
<path d="M0 0 C0.63615234 0.56267578 0.63615234 0.56267578 1.28515625 1.13671875 C8.49028231 7.63658529 8.49028231 7.63658529 17 12 C17 12.66 17 13.32 17 14 C12.56159904 13.48205375 10.21074609 11.90551072 6.8125 9.0625 C5.95269531 8.35222656 5.09289062 7.64195312 4.20703125 6.91015625 C2 5 2 5 0 3 C0 2.01 0 1.02 0 0 Z " fill="#1CA4FA" transform="translate(281,305)"/>
<path d="M0 0 C4.01330548 0.54233858 7.89549148 1.42764624 11.8125 2.4375 C12.76769531 2.68371094 13.72289062 2.92992187 14.70703125 3.18359375 C17 4 17 4 18 6 C10.99995111 5.71311275 6.08973134 4.49595688 0 1 C0 0.67 0 0.34 0 0 Z " fill="#1AA5FA" transform="translate(318,279)"/>
<path d="M0 0 C0.66 0 1.32 0 2 0 C1.34 3.63 0.68 7.26 0 11 C-0.66 11 -1.32 11 -2 11 C-2 13.31 -2 15.62 -2 18 C-2.66 18 -3.32 18 -4 18 C-3.48914188 11.56318772 -2.27057103 6.04057576 0 0 Z " fill="#1DA6FA" transform="translate(273,365)"/>
<path d="M0 0 C3.76428019 3.31087949 4.80132193 7.24690847 6 12 C6.1875 15.0625 6.1875 15.0625 6 17 C5.34 17 4.68 17 4 17 C3.32635339 14.91891315 2.66133202 12.8350329 2 10.75 C1.62875 9.58984375 1.2575 8.4296875 0.875 7.234375 C0 4 0 4 0 0 Z " fill="#16A4FA" transform="translate(665,358)"/>
<path d="M0 0 C0 0.66 0 1.32 0 2 C-0.65226563 2.31453125 -1.30453125 2.6290625 -1.9765625 2.953125 C-6.89655855 5.3623266 -11.5332174 7.82623341 -16 11 C-16.66 10.67 -17.32 10.34 -18 10 C-17.01 9.67 -16.02 9.34 -15 9 C-15 8.34 -15 7.68 -15 7 C-14.34 7 -13.68 7 -13 7 C-13 6.34 -13 5.68 -13 5 C-11.9275 4.54625 -10.855 4.0925 -9.75 3.625 C-7.68384911 2.74427709 -5.68705644 1.83929925 -3.6875 0.8125 C-2 0 -2 0 0 0 Z " fill="#1493FB" transform="translate(544,337)"/>
<path d="M0 0 C1.45903258 0.30921884 2.91720722 0.62248799 4.375 0.9375 C5.18710937 1.11152344 5.99921875 1.28554688 6.8359375 1.46484375 C9 2 9 2 11 3 C10.67 3.66 10.34 4.32 10 5 C5.05 4.67 0.1 4.34 -5 4 C-5 3.67 -5 3.34 -5 3 C-1.535 2.505 -1.535 2.505 2 2 C1.34 1.34 0.68 0.68 0 0 Z " fill="#055091" transform="translate(565,766)"/>
<path d="M0 0 C0.66 0.33 1.32 0.66 2 1 C0.94890486 2.75687372 -0.11643123 4.50523126 -1.1875 6.25 C-1.77917969 7.22453125 -2.37085938 8.1990625 -2.98046875 9.203125 C-5.04864861 12.06737409 -7.15279924 13.93467302 -10 16 C-8.31029911 12.33601701 -6.12699789 9.09167428 -3.875 5.75 C-3.15054687 4.67234375 -2.42609375 3.5946875 -1.6796875 2.484375 C-0.84824219 1.25460937 -0.84824219 1.25460937 0 0 Z " fill="#32C9FB" transform="translate(496,474)"/>
<path d="M0 0 C5.7097955 0.41778991 8.60957142 2.57546571 13 6 C12.67 6.66 12.34 7.32 12 8 C9.99743426 6.85865673 7.99800203 5.71181367 6 4.5625 C4.88625 3.92441406 3.7725 3.28632813 2.625 2.62890625 C1.75875 2.09136719 0.8925 1.55382812 0 1 C0 0.67 0 0.34 0 0 Z " fill="#18A5FA" transform="translate(275,258)"/>
<path d="M0 0 C0.33 0 0.66 0 1 0 C1.07654536 4.51617599 1.10228696 8.59085217 0 13 C-0.66 13 -1.32 13 -2 13 C-2.19294408 8.17639811 -1.75747614 4.50353262 0 0 Z " fill="#1BA7FB" transform="translate(268,384)"/>
<path d="M0 0 C0.99 0.33 1.98 0.66 3 1 C2.34 1 1.68 1 1 1 C0.67 1.99 0.34 2.98 0 4 C-1.95309888 5.40113616 -3.95708818 6.73339467 -6 8 C-6.99 8.66 -7.98 9.32 -9 10 C-7.63491499 6.88271632 -6.13080302 4.91336262 -3.5625 2.6875 C-2.96566406 2.15511719 -2.36882812 1.62273438 -1.75390625 1.07421875 C-1.17511719 0.71972656 -0.59632813 0.36523438 0 0 Z " fill="#07599F" transform="translate(407,734)"/>
<path d="M0 0 C0.66 0.99 1.32 1.98 2 3 C1.38125 3.185625 0.7625 3.37125 0.125 3.5625 C-3.05602866 5.71437233 -3.19451947 8.37533763 -4 12 C-5.39864092 8.82127065 -4.89282517 7.69888978 -3.6875 4.3125 C-2 1 -2 1 0 0 Z " fill="#19A5FB" transform="translate(284,342)"/>
<path d="M0 0 C0.99 0.66 1.98 1.32 3 2 C3 2.99 3 3.98 3 5 C0.625 6.75 0.625 6.75 -2 8 C-2.66 7.67 -3.32 7.34 -4 7 C-2.68 4.69 -1.36 2.38 0 0 Z " fill="#2CC1FD" transform="translate(505,459)"/>
<path d="M0 0 C2.32590854 3.63423209 2.16265833 6.77088331 2 11 C0.35 9.35 -1.3 7.7 -3 6 C-2.34 5.67 -1.68 5.34 -1 5 C-0.34444881 2.47266765 -0.34444881 2.47266765 0 0 Z " fill="#15AEFD" transform="translate(491,416)"/>
<path d="M0 0 C0.8353125 0.37125 0.8353125 0.37125 1.6875 0.75 C0.6875 2.75 0.6875 2.75 -1.6875 3.9375 C-4.3125 4.75 -4.3125 4.75 -7.3125 3.75 C-2.88173077 -0.31153846 -2.88173077 -0.31153846 0 0 Z " fill="#17A4FA" transform="translate(683.3125,266.25)"/>
<path d="M0 0 C0.66 0.33 1.32 0.66 2 1 C-1.625 7.75 -1.625 7.75 -5 10 C-4.38545304 6.00544473 -2.29353263 3.25533664 0 0 Z " fill="#17A4FA" transform="translate(296,321)"/>
<path d="M0 0 C1.31896465 0.92838287 2.62998689 1.86805732 3.9375 2.8125 C4.66839844 3.33457031 5.39929688 3.85664063 6.15234375 4.39453125 C8 6 8 6 9 9 C8.34 9 7.68 9 7 9 C7 8.34 7 7.68 7 7 C6.401875 6.71125 5.80375 6.4225 5.1875 6.125 C3 5 3 5 0 3 C0 2.01 0 1.02 0 0 Z " fill="#1CA3F6" transform="translate(265,248)"/>
<path d="M0 0 C0.66 0 1.32 0 2 0 C3.5078125 1.96875 3.5078125 1.96875 5.125 4.5 C5.66382813 5.3353125 6.20265625 6.170625 6.7578125 7.03125 C7.16773438 7.6809375 7.57765625 8.330625 8 9 C4.47165622 8.39958856 4.09432115 8.12314151 1.75 5.0625 C0 2 0 2 0 0 Z " fill="#19A2F9" transform="translate(272,295)"/>
<path d="M0 0 C0.66 0.33 1.32 0.66 2 1 C1.34 3.31 0.68 5.62 0 8 C-0.66 8 -1.32 8 -2 8 C-1.125 1.125 -1.125 1.125 0 0 Z " fill="#19A6FC" transform="translate(277,356)"/>
<path d="M0 0 C-5.75 4 -5.75 4 -8 4 C-8 3.01 -8 2.02 -8 1 C-4.93251126 -0.86240388 -3.40254489 -1.2151946 0 0 Z " fill="#14A3FB" transform="translate(674,273)"/>
<path d="M0 0 C4 1 4 1 4 1 Z " fill="#33ACF2" transform="translate(536,285)"/>
<path d="" fill="#2090E1" transform="translate(0,0)"/>
<path d="M0 0 C0.66 0 1.32 0 2 0 C1.67 0.66 1.34 1.32 1 2 C0.67 1.34 0.34 0.68 0 0 Z " fill="#3EB5F4" transform="translate(281,563)"/>
<path d="M0 0 C0.66 0 1.32 0 2 0 C1.67 0.66 1.34 1.32 1 2 C0.67 1.34 0.34 0.68 0 0 Z " fill="#35ADEF" transform="translate(267,292)"/>
<path d="M0 0 C2 1 2 1 2 1 Z " fill="#3EB4F4" transform="translate(314,619)"/>
<path d="" fill="#3BB2F3" transform="translate(0,0)"/>
<path d="" fill="#3DB2F1" transform="translate(0,0)"/>
<path d="" fill="#2091E3" transform="translate(0,0)"/>
<path d="" fill="#3FB5F3" transform="translate(0,0)"/>
<path d="" fill="#3EB5F3" transform="translate(0,0)"/>
<path d="" fill="#41B5F2" transform="translate(0,0)"/>
<path d="" fill="#3AAEF0" transform="translate(0,0)"/>
<path d="M0 0 C2 1 2 1 2 1 Z " fill="#34AEF2" transform="translate(587,285)"/>
<path d="M0 0 C2 1 2 1 2 1 Z " fill="#36ACF3" transform="translate(583,285)"/>
<path d="M0 0 C2 1 2 1 2 1 Z " fill="#34ACF1" transform="translate(555,285)"/>
<path d="M0 0 C2 1 2 1 2 1 Z " fill="#35ADF2" transform="translate(551,285)"/>
<path d="M0 0 C2 1 2 1 2 1 Z " fill="#34ACF2" transform="translate(543,285)"/>
<path d="M0 0 C2 1 2 1 2 1 Z " fill="#36AFF2" transform="translate(427,285)"/>
<path d="M0 0 C2 1 2 1 2 1 Z " fill="#36AEF2" transform="translate(399,285)"/>
<path d="M0 0 C2 1 2 1 2 1 Z " fill="#35AEF2" transform="translate(395,285)"/>
<path d="" fill="#38ADEF" transform="translate(0,0)"/>
<path d="" fill="#3AA9E5" transform="translate(0,0)"/>
<path d="" fill="#3FA6DC" transform="translate(0,0)"/>
<path d="" fill="#4C5051" transform="translate(0,0)"/>
<path d="" fill="#3E4649" transform="translate(0,0)"/>
<path d="" fill="#1767A2" transform="translate(0,0)"/>
<path d="" fill="#1765A1" transform="translate(0,0)"/>
<path d="" fill="#1369A9" transform="translate(0,0)"/>
<path d="" fill="#16649D" transform="translate(0,0)"/>
<path d="" fill="#18649A" transform="translate(0,0)"/>
<path d="" fill="#1A6299" transform="translate(0,0)"/>
<path d="" fill="#1772B5" transform="translate(0,0)"/>
<path d="" fill="#1273B9" transform="translate(0,0)"/>
<path d="" fill="#1781D0" transform="translate(0,0)"/>
<path d="" fill="#1584D4" transform="translate(0,0)"/>
<path d="" fill="#1886DA" transform="translate(0,0)"/>
<path d="" fill="#1B8FDF" transform="translate(0,0)"/>
<path d="" fill="#1C8EE0" transform="translate(0,0)"/>
<path d="" fill="#208EDF" transform="translate(0,0)"/>
<path d="" fill="#2595E3" transform="translate(0,0)"/>
<path d="" fill="#2999E3" transform="translate(0,0)"/>
<path d="" fill="#2C9CE5" transform="translate(0,0)"/>
<path d="" fill="#2B9DE6" transform="translate(0,0)"/>
<path d="" fill="#2D9DE6" transform="translate(0,0)"/>
<path d="" fill="#329EE5" transform="translate(0,0)"/>
<path d="" fill="#3CB0F0" transform="translate(0,0)"/>
<path d="" fill="#3BACF0" transform="translate(0,0)"/>
<path d="" fill="#3AACEF" transform="translate(0,0)"/>
<path d="" fill="#3BB0F1" transform="translate(0,0)"/>
<path d="" fill="#3CB0F1" transform="translate(0,0)"/>
<path d="" fill="#3BADF3" transform="translate(0,0)"/>
<path d="" fill="#40B1F4" transform="translate(0,0)"/>
<path d="" fill="#3EAFF2" transform="translate(0,0)"/>
<path d="" fill="#3CB1F5" transform="translate(0,0)"/>
<path d="" fill="#3FB3F2" transform="translate(0,0)"/>
<path d="" fill="#3DB2F3" transform="translate(0,0)"/>
<path d="" fill="#3EB1F2" transform="translate(0,0)"/>
<path d="" fill="#3DB2F2" transform="translate(0,0)"/>
<path d="" fill="#41B5F6" transform="translate(0,0)"/>
<path d="" fill="#3FB3F4" transform="translate(0,0)"/>
<path d="" fill="#3DB2F3" transform="translate(0,0)"/>
<path d="" fill="#3BB3F5" transform="translate(0,0)"/>
<path d="" fill="#2193E3" transform="translate(0,0)"/>
<path d="" fill="#40B5F4" transform="translate(0,0)"/>
<path d="" fill="#40B3F2" transform="translate(0,0)"/>
<path d="" fill="#3EB3F0" transform="translate(0,0)"/>
<path d="" fill="#1D92E1" transform="translate(0,0)"/>
<path d="" fill="#40B3F2" transform="translate(0,0)"/>
<path d="" fill="#41B6F4" transform="translate(0,0)"/>
<path d="" fill="#2295E4" transform="translate(0,0)"/>
<path d="" fill="#42B3F2" transform="translate(0,0)"/>
<path d="" fill="#40B5F4" transform="translate(0,0)"/>
<path d="" fill="#3BB5F2" transform="translate(0,0)"/>
<path d="" fill="#3FB5F3" transform="translate(0,0)"/>
<path d="" fill="#42B8F4" transform="translate(0,0)"/>
<path d="" fill="#279EEB" transform="translate(0,0)"/>
<path d="" fill="#42B3F0" transform="translate(0,0)"/>
<path d="" fill="#40B6F3" transform="translate(0,0)"/>
<path d="" fill="#41B6F3" transform="translate(0,0)"/>
<path d="" fill="#43B6F3" transform="translate(0,0)"/>
<path d="" fill="#3DB1F2" transform="translate(0,0)"/>
<path d="" fill="#3AB1F3" transform="translate(0,0)"/>
<path d="" fill="#3CB0F3" transform="translate(0,0)"/>
<path d="" fill="#3EB1F3" transform="translate(0,0)"/>
<path d="" fill="#37AFEF" transform="translate(0,0)"/>
<path d="" fill="#3DB2F0" transform="translate(0,0)"/>
<path d="" fill="#3DB1F0" transform="translate(0,0)"/>
<path d="" fill="#3CAFED" transform="translate(0,0)"/>
<path d="" fill="#3EB1F3" transform="translate(0,0)"/>
<path d="" fill="#3DB2F2" transform="translate(0,0)"/>
<path d="" fill="#34ACF2" transform="translate(0,0)"/>
<path d="" fill="#525A5E" transform="translate(0,0)"/>
<path d="" fill="#31B0F5" transform="translate(0,0)"/>
<path d="" fill="#39B1F4" transform="translate(0,0)"/>
<path d="" fill="#32ADF4" transform="translate(0,0)"/>
<path d="" fill="#38B0F6" transform="translate(0,0)"/>
<path d="" fill="#35AFF7" transform="translate(0,0)"/>
<path d="" fill="#38AFF5" transform="translate(0,0)"/>
<path d="" fill="#34ADF1" transform="translate(0,0)"/>
<path d="" fill="#37AFF3" transform="translate(0,0)"/>
<path d="" fill="#37AFF3" transform="translate(0,0)"/>
<path d="" fill="#33ABF0" transform="translate(0,0)"/>
<path d="" fill="#36ADF2" transform="translate(0,0)"/>
<path d="" fill="#36ADF1" transform="translate(0,0)"/>
<path d="" fill="#37ADF2" transform="translate(0,0)"/>
<path d="" fill="#37AEF2" transform="translate(0,0)"/>
<path d="" fill="#35ADF3" transform="translate(0,0)"/>
<path d="" fill="#37AFF3" transform="translate(0,0)"/>
<path d="" fill="#35AEF2" transform="translate(0,0)"/>
<path d="" fill="#36ADF2" transform="translate(0,0)"/>
<path d="" fill="#36ADF1" transform="translate(0,0)"/>
<path d="" fill="#34AEF2" transform="translate(0,0)"/>
<path d="" fill="#35AEF3" transform="translate(0,0)"/>
<path d="" fill="#34AAF2" transform="translate(0,0)"/>
<path d="" fill="#33ACF2" transform="translate(0,0)"/>
<path d="" fill="#34ACF1" transform="translate(0,0)"/>
<path d="" fill="#34ADF2" transform="translate(0,0)"/>
<path d="" fill="#32ADF1" transform="translate(0,0)"/>
<path d="" fill="#34AEF3" transform="translate(0,0)"/>
<path d="" fill="#35ADF2" transform="translate(0,0)"/>
<path d="" fill="#35AEF2" transform="translate(0,0)"/>
<path d="" fill="#35AEF2" transform="translate(0,0)"/>
<path d="" fill="#36AFF3" transform="translate(0,0)"/>
<path d="" fill="#36ADF3" transform="translate(0,0)"/>
<path d="" fill="#36B0F4" transform="translate(0,0)"/>
<path d="" fill="#36AEF2" transform="translate(0,0)"/>
<path d="" fill="#36B0F2" transform="translate(0,0)"/>
<path d="" fill="#36AEF4" transform="translate(0,0)"/>
<path d="" fill="#37B0F4" transform="translate(0,0)"/>
<path d="" fill="#38AEF3" transform="translate(0,0)"/>
<path d="" fill="#37AFF2" transform="translate(0,0)"/>
<path d="" fill="#3AB1F2" transform="translate(0,0)"/>
<path d="" fill="#34ACF1" transform="translate(0,0)"/>
<path d="" fill="#35ADF2" transform="translate(0,0)"/>
<path d="" fill="#39B0F3" transform="translate(0,0)"/>
<path d="" fill="#39ACEF" transform="translate(0,0)"/>
<path d="" fill="#35A6E7" transform="translate(0,0)"/>
<path d="" fill="#35ADF1" transform="translate(0,0)"/>
<path d="" fill="#3BB0F3" transform="translate(0,0)"/>
<path d="" fill="#35A7E8" transform="translate(0,0)"/>
<path d="" fill="#3FACEA" transform="translate(0,0)"/>
<path d="" fill="#38ADEE" transform="translate(0,0)"/>
<path d="" fill="#39AAED" transform="translate(0,0)"/>
<path d="" fill="#3BABE7" transform="translate(0,0)"/>
<path d="" fill="#37AAED" transform="translate(0,0)"/>
<path d="" fill="#38A6E4" transform="translate(0,0)"/>
<path d="" fill="#39A5E3" transform="translate(0,0)"/>
<path d="" fill="#379FDB" transform="translate(0,0)"/>
<path d="" fill="#36A4E5" transform="translate(0,0)"/>
<path d="" fill="#37A1DB" transform="translate(0,0)"/>
<path d="" fill="#37ACEC" transform="translate(0,0)"/>
<path d="" fill="#40A3D7" transform="translate(0,0)"/>
</svg>
